<?xml version="1.0" encoding="UTF-8"?>
<svg width="110px" height="75px" viewBox="0 0 110 75" version="1.1" xmlns="http://www.w3.org/2000/svg" xmlns:xlink="http://www.w3.org/1999/xlink">
    <!-- Generator: Sketch 51 (57462) - http://www.bohemiancoding.com/sketch -->
    <title>logoOB</title>
    <desc>Created with Sketch.</desc>
    <defs></defs>
    <g id="Page-1" stroke="none" stroke-width="1" fill="none" fill-rule="evenodd">
        <g id="logoOB" fill-rule="nonzero">
            <g id="Group" transform="translate(34.137931, 0.000000)">
                <rect id="Rectangle-path" fill="#003366" x="0.142241379" y="21.0991379" width="8.55818966" height="8.55818966"></rect>
                <rect id="Rectangle-path" fill="#376092" x="10.6681034" y="21.0991379" width="8.55818966" height="8.55818966"></rect>
                <rect id="Rectangle-path" fill="#00D3B3" x="31.6012931" y="0.189655172" width="8.55818966" height="8.55818966"></rect>
                <rect id="Rectangle-path" fill="#4F81BD" x="0.142241379" y="31.6487069" width="8.55818966" height="8.55818966"></rect>
                <rect id="Rectangle-path" fill="#95B3D7" x="10.6681034" y="31.6487069" width="8.55818966" height="8.55818966"></rect>
                <g fill="#17375E" class="Shape">
                    <polygon points="19.4633621 0.142241379 4.40948276 0.142241379 4.40948276 0.142241379 0.142241379 0.142241379 0.142241379 18.9892241 8.70043103 18.9892241 8.70043103 8.70043103 19.4633621 8.70043103"></polygon>
                    <polygon points="31.5538793 21.0991379 31.5538793 31.6487069 21.1939655 31.6487069 21.1939655 40.2068966 31.5538793 40.2068966 40.112069 40.2068966 40.112069 31.6487069 40.112069 21.0991379"></polygon>
                </g>
            </g>
            <g id="Group" transform="translate(0.000000, 50.495690)">
                <path d="M14.3426724,9.53017241 C14.3426724,12.7543103 13.8448276,15.0775862 12.825431,16.5237069 C11.8060345,17.9698276 9.95689655,18.6810345 7.27801724,18.6810345 C4.59913793,18.6810345 2.75,17.9461207 1.73060345,16.4762931 C0.711206897,15.0064655 0.213362069,12.6831897 0.213362069,9.48275862 C0.213362069,6.30603448 0.734913793,3.93534483 1.75431034,2.39439655 C2.7737069,0.853448276 4.62284483,0.0711206897 7.27801724,0.0711206897 C9.93318966,0.0711206897 11.7823276,0.829741379 12.8017241,2.37068966 C13.8211207,3.93534483 14.3426724,6.30603448 14.3426724,9.53017241 Z M2.96336207,15.4331897 C3.69827586,16.6422414 5.12068966,17.2349138 7.27801724,17.2349138 C9.41163793,17.2349138 10.8577586,16.6422414 11.5926724,15.4568966 C12.3275862,14.2715517 12.6831897,12.3038793 12.6831897,9.53017241 C12.6831897,6.75646552 12.3038793,4.74137931 11.5452586,3.4612069 C10.7866379,2.18103448 9.36422414,1.54094828 7.27801724,1.54094828 C5.12068966,1.54094828 3.67456897,2.22844828 2.93965517,3.62715517 C2.53663793,4.33836207 2.27586207,5.14439655 2.10991379,6.06896552 C1.96767241,6.99353448 1.89655172,8.13146552 1.89655172,9.48275862 C1.87284483,12.2327586 2.25215517,14.2241379 2.96336207,15.4331897 Z" class="Shape" fill="#00D3B3"></path>
                <path d="M16.5237069,24.2758621 L16.5237069,5.40517241 L18.0646552,5.40517241 L18.0646552,6.40086207 C19.4159483,5.57112069 20.8383621,5.14439655 22.3556034,5.14439655 C23.8491379,5.14439655 24.9633621,5.66594828 25.7219828,6.73275862 C26.4568966,7.79956897 26.8362069,9.50646552 26.8362069,11.9008621 C26.8362069,14.2952586 26.4094828,16.0021552 25.5323276,17.0689655 C24.6551724,18.1357759 23.2327586,18.6573276 21.2176724,18.6573276 C20.1508621,18.6573276 19.1077586,18.5387931 18.0883621,18.325431 L18.0883621,24.2521552 L16.5237069,24.2521552 L16.5237069,24.2758621 Z M22.0237069,6.56681034 C21.4547414,6.56681034 20.8383621,6.66163793 20.174569,6.8512931 C19.5107759,7.04094828 19.012931,7.23060345 18.6336207,7.44396552 L18.0646552,7.72844828 L18.0646552,16.9978448 C19.25,17.2112069 20.2693966,17.3060345 21.1228448,17.3060345 C22.6163793,17.3060345 23.6594828,16.8793103 24.2758621,16.049569 C24.8922414,15.2198276 25.1767241,13.8211207 25.1767241,11.8771552 C25.1767241,9.93318966 24.9159483,8.58189655 24.3943966,7.77586207 C23.8728448,6.96982759 23.0668103,6.56681034 22.0237069,6.56681034 Z" class="Shape" fill="#00D3B3"></path>
                <path d="M37.4331897,17.1400862 L38.2155172,17.0689655 L38.262931,18.3491379 C36.2952586,18.5862069 34.6357759,18.7047414 33.2844828,18.7047414 C31.4116379,18.6810345 30.1077586,18.1357759 29.3491379,17.0452586 C28.6142241,15.9547414 28.2349138,14.2715517 28.2349138,11.9956897 C28.2349138,7.44396552 30.012931,5.16810345 33.5926724,5.16810345 C35.299569,5.16810345 36.6034483,5.66594828 37.4331897,6.63793103 C38.2866379,7.60991379 38.7133621,9.17456897 38.7133621,11.3318966 L38.6659483,12.5883621 L29.8232759,12.5883621 C29.8232759,14.1767241 30.1077586,15.362069 30.6530172,16.1443966 C31.1982759,16.9267241 32.1465517,17.3060345 33.4741379,17.3060345 C34.8017241,17.2823276 36.1293103,17.2349138 37.4331897,17.1400862 Z M29.8469828,11.2844828 L37.1724138,11.2844828 C37.1724138,9.57758621 36.887931,8.34482759 36.3189655,7.60991379 C35.75,6.875 34.8491379,6.51939655 33.6163793,6.51939655 C32.3836207,6.51939655 31.4353448,6.8987069 30.7952586,7.65732759 C30.1551724,8.41594828 29.8469828,9.625 29.8469828,11.2844828 Z" class="Shape" fill="#00D3B3"></path>
                <path d="M42.174569,18.4439655 L40.6336207,18.4439655 L40.6336207,5.42887931 L42.174569,5.42887931 L42.174569,6.40086207 C43.6206897,5.59482759 45.0431034,5.16810345 46.4181034,5.16810345 C48.1487069,5.16810345 49.3103448,5.61853448 49.8793103,6.54310345 C50.4719828,7.46767241 50.7564655,9.15086207 50.7564655,11.5926724 L50.7564655,18.4439655 L49.1918103,18.4439655 L49.1918103,11.6875 C49.1918103,9.69612069 49.0021552,8.34482759 48.6228448,7.63362069 C48.2435345,6.92241379 47.4375,6.59051724 46.1810345,6.59051724 C45.5646552,6.59051724 44.9482759,6.68534483 44.2607759,6.875 C43.5969828,7.06465517 43.075431,7.25431034 42.7198276,7.44396552 L42.174569,7.70474138 L42.174569,18.4439655 Z" class="Shape" fill="#00D3B3"></path>
                <path d="M53.3168103,0.61637931 L60.0732759,0.61637931 C61.8987069,0.61637931 63.25,0.995689655 64.1508621,1.73060345 C65.0517241,2.46551724 65.5021552,3.65086207 65.5021552,5.26293103 C65.5021552,6.32974138 65.3362069,7.15948276 65.0043103,7.75215517 C64.6724138,8.36853448 64.1271552,8.86637931 63.4159483,9.26939655 C65.1228448,9.93318966 65.9762931,11.3081897 65.9762931,13.3943966 C65.9762931,16.7607759 64.0797414,18.4439655 60.3103448,18.4439655 L53.3405172,18.4439655 L53.3405172,0.61637931 L53.3168103,0.61637931 Z M59.9073276,3.10560345 L56.1853448,3.10560345 L56.1853448,8.20258621 L60.0021552,8.20258621 C61.7090517,8.20258621 62.5625,7.32543103 62.5625,5.57112069 C62.5625,3.93534483 61.6853448,3.10560345 59.9073276,3.10560345 Z M60.0732759,10.6443966 L56.1853448,10.6443966 L56.1853448,15.9310345 L60.1206897,15.9310345 C61.0689655,15.9310345 61.7801724,15.7413793 62.2780172,15.3383621 C62.7521552,14.9353448 62.9892241,14.2478448 62.9892241,13.2758621 C62.9892241,12.3038793 62.7047414,11.6163793 62.1594828,11.237069 C61.5905172,10.8577586 60.9030172,10.6443966 60.0732759,10.6443966 Z" class="Shape" fill="#003366"></path>
                <path d="M74.0840517,18.4439655 L67.9202586,18.4439655 L67.9202586,0.61637931 L74.0840517,0.61637931 C76.8340517,0.61637931 78.7068966,1.30387931 79.7025862,2.70258621 C80.6982759,4.1012931 81.2198276,6.25862069 81.2198276,9.22198276 C81.2198276,10.7392241 81.125,12.0193966 80.9116379,13.0625 C80.7219828,14.1056034 80.3663793,15.0538793 79.8685345,15.9073276 C78.8728448,17.5905172 76.9525862,18.4439655 74.0840517,18.4439655 Z M78.2327586,9.22198276 C78.2327586,7.06465517 77.9719828,5.5237069 77.4267241,4.57543103 C76.8814655,3.62715517 75.7672414,3.15301724 74.1077586,3.15301724 L70.8362069,3.15301724 L70.8362069,15.8836207 L74.1077586,15.8836207 C75.8146552,15.8836207 76.9762931,15.2435345 77.5452586,13.987069 C77.8297414,13.3469828 78.0193966,12.6594828 78.1142241,11.924569 C78.1853448,11.2133621 78.2327586,10.2887931 78.2327586,9.22198276 Z" class="Shape" fill="#003366"></path>
                <path d="M81.4568966,18.4439655 L85.8426724,0.61637931 L91.6034483,0.61637931 L96.0366379,18.4439655 L93.1206897,18.4439655 L92.1487069,14.6271552 L85.2974138,14.6271552 L84.325431,18.4439655 L81.4568966,18.4439655 Z M88.0948276,3.03448276 L85.8900862,12.0668103 L91.5797414,12.0668103 L89.3987069,3.03448276 L88.0948276,3.03448276 Z" class="Shape" fill="#003366"></path>
                <path d="M103.8125,12.8965517 L100.161638,12.8965517 L100.161638,18.4439655 L97.2693966,18.4439655 L97.2693966,0.61637931 L103.788793,0.61637931 C107.818966,0.61637931 109.857759,2.60775862 109.857759,6.59051724 C109.857759,8.62931034 109.359914,10.1939655 108.340517,11.2844828 C107.321121,12.3512931 105.803879,12.8965517 103.8125,12.8965517 Z M100.161638,10.4073276 L103.788793,10.4073276 C105.875,10.4073276 106.918103,9.15086207 106.918103,6.61422414 C106.918103,5.40517241 106.657328,4.50431034 106.159483,3.95905172 C105.661638,3.4137931 104.855603,3.12931034 103.788793,3.12931034 L100.161638,3.12931034 L100.161638,10.4073276 Z" class="Shape" fill="#003366"></path>
            </g>
        </g>
    </g>
</svg>